<svg width="1177" height="1176" viewBox="0 0 1177 1176" fill="none" xmlns="http://www.w3.org/2000/svg">
<path d="M1073.61 522.687L1088.93 523.674C1077.14 445.369 1047.14 370.919 1001.35 306.303C955.563 241.686 895.257 188.702 825.277 151.605L821.805 166.568C888.361 202.548 945.711 253.403 989.386 315.172C1033.06 376.941 1061.88 447.957 1073.61 522.687Z" fill="#B5BABD"/>
<path d="M115.066 472.381C170.773 262.9 362.2 107.943 589.069 107.943C604.275 107.943 619.302 108.641 634.149 110.038L637.591 95.3142C621.637 93.788 605.472 92.98 589.129 92.98C354.267 92.98 156.315 253.982 99.8594 471.394L115.066 472.381Z" fill="#B5BABD"/>
<path d="M330.739 1014.82C269.843 977.019 217.954 926.36 178.712 866.392C139.469 806.425 113.823 738.602 103.571 667.678L88.3049 666.69C98.6105 741.232 125.396 812.543 166.715 875.442C208.034 938.341 262.849 991.248 327.177 1030.32L330.739 1014.82Z" fill="#B5BABD"/>
<path d="M1064.72 717.924C1011.32 930.697 818.242 1088.56 589.069 1088.56C564.53 1088.55 540.026 1086.71 515.761 1083.05L512.378 1097.68C537.757 1101.57 563.394 1103.52 589.069 1103.52C826.175 1103.52 1025.65 939.435 1079.98 718.911L1064.72 717.924Z" fill="#B5BABD"/>
<path d="M594.726 898.706C534.379 898.738 475.363 880.974 425.065 847.638C374.766 814.302 335.42 766.875 311.951 711.292C288.483 655.71 281.933 594.443 293.124 535.158C304.314 475.873 332.746 421.204 374.862 377.995L355.165 334.512C300.047 385.855 262.877 453.536 249.128 527.587C235.38 601.638 245.779 678.146 278.796 745.844C311.812 813.542 365.701 868.852 432.525 903.628C499.349 938.405 575.577 950.81 649.984 939.016L630.677 896.372C618.748 897.839 606.745 898.618 594.726 898.706Z" fill="#B5BABD"/>
<path d="M594.726 240.156C572.965 240.127 551.248 242.131 529.859 246.141L549.017 288.426C613.439 278.652 679.3 289.637 737.059 319.79C794.817 349.943 841.473 397.698 870.266 456.135C899.058 514.572 908.493 580.656 897.202 644.813C885.911 708.969 854.481 767.866 807.466 812.968L826.953 855.882C880.625 808.696 918.64 746.28 935.935 676.95C953.231 607.62 948.985 534.668 923.763 467.811C898.541 400.954 853.541 343.368 794.758 302.723C735.975 262.079 666.199 240.306 594.726 240.305V240.156Z" fill="#B5BABD"/>
<path d="M718.922 150.677L750.293 159.655L673.991 366.413L597.69 573.172L642.62 357.436L687.551 141.669L718.922 150.677Z" fill="#B23647"/>
<path d="M467.597 348.069L489.509 337.176L530.877 448.081L572.246 558.987L508.966 458.944L445.656 358.932L467.597 348.069Z" fill="#B23647"/>
<path d="M705.96 824.161L728.86 812.819L671.028 724.986L613.165 637.183L648.128 736.358L683.061 835.533L705.96 824.161Z" fill="#B23647"/>
<path d="M594.876 671.598C638.322 671.598 673.542 636.387 673.542 592.953C673.542 549.518 638.322 514.307 594.876 514.307C551.43 514.307 516.21 549.518 516.21 592.953C516.21 636.387 551.43 671.598 594.876 671.598Z" fill="#B5BABD"/>
<path d="M1090.1 621.113L1088.72 653.702L869.789 628.116L650.822 602.529L871.166 595.526L1091.48 588.524L1090.1 621.113Z" fill="#B23647"/>
<path d="M425.51 1040.5L391.595 1027.39L487.802 828.949L584.01 630.51L521.717 842.056L459.425 1053.6L425.51 1040.5Z" fill="#B23647"/>
<path d="M120.783 568.713L122.1 536.123L341.096 561.321L560.093 586.519L339.779 593.91L119.466 601.332L120.783 568.713Z" fill="#B23647"/>
<path d="M106.714 647.358C150.16 647.358 185.381 612.147 185.381 568.713C185.381 525.278 150.16 490.067 106.714 490.067C63.2682 490.067 28.0481 525.278 28.0481 568.713C28.0481 612.147 63.2682 647.358 106.714 647.358Z" fill="#B23647"/>
<path d="M447.511 380.06C490.958 380.06 526.178 344.849 526.178 301.414C526.178 257.98 490.958 222.769 447.511 222.769C404.065 222.769 368.845 257.98 368.845 301.414C368.845 344.849 404.065 380.06 447.511 380.06Z" fill="#B23647"/>
<path d="M729.848 201.491C773.294 201.491 808.514 166.281 808.514 122.846C808.514 79.4114 773.294 44.2007 729.848 44.2007C686.402 44.2007 651.182 79.4114 651.182 122.846C651.182 166.281 686.402 201.491 729.848 201.491Z" fill="#B23647"/>
<path d="M1084.03 699.818C1127.47 699.818 1162.69 664.608 1162.69 621.173C1162.69 577.738 1127.47 542.528 1084.03 542.528C1040.58 542.528 1005.36 577.738 1005.36 621.173C1005.36 664.608 1040.58 699.818 1084.03 699.818Z" fill="#B23647"/>
<path d="M729.848 957.122C773.294 957.122 808.514 921.911 808.514 878.476C808.514 835.042 773.294 799.831 729.848 799.831C686.402 799.831 651.182 835.042 651.182 878.476C651.182 921.911 686.402 957.122 729.848 957.122Z" fill="#B23647"/>
<path d="M421.2 1128.78C464.646 1128.78 499.866 1093.57 499.866 1050.13C499.866 1006.7 464.646 971.486 421.2 971.486C377.754 971.486 342.533 1006.7 342.533 1050.13C342.533 1093.57 377.754 1128.78 421.2 1128.78Z" fill="#B23647"/>
</svg>
