<svg width="57" height="57" viewBox="0 0 57 57" fill="none" xmlns="http://www.w3.org/2000/svg">
<path d="M50.7462 24.3325L51.4394 24.3769C50.9054 20.8594 49.5485 17.5151 47.4775 14.6125C45.4065 11.7098 42.6791 9.32956 39.5141 7.66273L39.3571 8.3349C42.3671 9.95161 44.9608 12.2363 46.9362 15.011C48.9116 17.7857 50.2154 20.9757 50.7462 24.3325Z" fill="#B5BABD"/>
<path d="M7.39106 22.0727C9.91071 12.6623 18.5677 5.70134 28.8304 5.70134C29.5182 5.70134 30.1978 5.73271 30.8694 5.79545L31.0224 5.13403C30.3007 5.06547 29.5696 5.02917 28.8304 5.02917C18.2075 5.02917 9.25405 12.2617 6.70056 22.0284L7.39106 22.0727Z" fill="#B5BABD"/>
<path d="M17.1461 46.4402C14.3914 44.7424 12.0443 42.4668 10.2693 39.7729C8.49435 37.079 7.33451 34.032 6.87116 30.8459L6.18066 30.8015C6.64605 34.1503 7.85725 37.354 9.72619 40.1797C11.5951 43.0054 14.0748 45.3819 16.9849 47.1366L17.1461 46.4402Z" fill="#B5BABD"/>
<path d="M50.3442 33.103C47.9288 42.6586 39.196 49.7527 28.8304 49.7527C27.7205 49.7529 26.6121 49.6702 25.5147 49.5053L25.3617 50.1627C26.5096 50.3373 27.6692 50.4249 28.8304 50.4248C39.5548 50.4248 48.5773 43.0538 51.0347 33.1474L50.3442 33.103Z" fill="#B5BABD"/>
<path d="M29.0863 41.2242C26.3567 41.2256 23.6874 40.4276 21.4124 38.9301C19.1374 37.4325 17.3578 35.302 16.2963 32.8051C15.2348 30.3083 14.9385 27.556 15.4447 24.8928C15.9508 22.2296 17.2368 19.7737 19.1417 17.8327L18.2509 15.8793C15.7548 18.1851 14.0708 21.2262 13.4472 24.5542C12.8236 27.8822 13.2934 31.3211 14.7872 34.364C16.281 37.4069 18.7199 39.8927 21.7443 41.4551C24.7688 43.0174 28.2187 43.5736 31.5856 43.0417L30.7123 41.126C30.1727 41.1901 29.6297 41.2228 29.0863 41.2242Z" fill="#B5BABD"/>
<path d="M29.0863 11.6406C28.102 11.6398 27.1198 11.7298 26.1523 11.9095L27.0189 13.8091C29.9327 13.37 32.9116 13.8634 35.524 15.218C38.1365 16.5725 40.2467 18.7178 41.549 21.3429C42.8513 23.968 43.2781 26.9367 42.7674 29.8187C42.2567 32.7008 40.8351 35.3465 38.7086 37.3726L39.59 39.3058C42.0196 37.1865 43.7409 34.3823 44.5243 31.2669C45.3078 28.1514 45.1163 24.8729 43.9753 21.8683C42.8342 18.8638 40.7979 16.276 38.1378 14.4498C35.4777 12.6237 32.3202 11.6461 29.0863 11.6474V11.6406Z" fill="#B5BABD"/>
<path d="M34.7037 7.62106L36.1226 8.02436L32.6715 17.3124L29.2203 26.6004L31.2526 16.9091L33.2848 7.21642L34.7037 7.62106Z" fill="#AB84BB"/>
<path d="M23.3362 16.4883L24.3272 15.999L26.1984 20.9811L28.0695 25.9632L25.2073 21.4691L22.3438 16.9763L23.3362 16.4883Z" fill="#AB84BB"/>
<path d="M34.1174 37.8754L35.1532 37.3659L32.5374 33.4203L29.9203 29.476L31.5017 33.9311L33.0817 38.3863L34.1174 37.8754Z" fill="#AB84BB"/>
<path d="M29.093 31.022C31.0581 31.022 32.6511 29.4402 32.6511 27.4891C32.6511 25.5379 31.0581 23.9561 29.093 23.9561C27.1279 23.9561 25.5349 25.5379 25.5349 27.4891C25.5349 29.4402 27.1279 31.022 29.093 31.022Z" fill="#B5BABD"/>
<path d="M51.4923 28.7541L51.43 30.2181L41.5274 29.0687L31.6235 27.9192L41.5897 27.6047L51.5546 27.2901L51.4923 28.7541Z" fill="#AB84BB"/>
<path d="M21.4325 47.5937L19.8986 47.0048L24.2501 38.0905L28.6016 29.1762L25.784 38.6793L22.9665 48.1825L21.4325 47.5937Z" fill="#AB84BB"/>
<path d="M7.64966 26.4001L7.70923 24.9362L17.6145 26.0681L27.5198 27.2L17.5549 27.5321L7.59009 27.8655L7.64966 26.4001Z" fill="#AB84BB"/>
<path d="M6.30926 29.9384C8.27434 29.9384 9.86736 28.3567 9.86736 26.4055C9.86736 24.4543 8.27434 22.8726 6.30926 22.8726C4.34417 22.8726 2.75116 24.4543 2.75116 26.4055C2.75116 28.3567 4.34417 29.9384 6.30926 29.9384Z" fill="#AB84BB"/>
<path d="M22.4277 17.9254C24.3928 17.9254 25.9858 16.3437 25.9858 14.3925C25.9858 12.4413 24.3928 10.8596 22.4277 10.8596C20.4626 10.8596 18.8696 12.4413 18.8696 14.3925C18.8696 16.3437 20.4626 17.9254 22.4277 17.9254Z" fill="#AB84BB"/>
<path d="M35.1979 9.90375C37.163 9.90375 38.756 8.322 38.756 6.37082C38.756 4.41964 37.163 2.8379 35.1979 2.8379C33.2328 2.8379 31.6398 4.41964 31.6398 6.37082C31.6398 8.322 33.2328 9.90375 35.1979 9.90375Z" fill="#AB84BB"/>
<path d="M51.2174 32.2897C53.1825 32.2897 54.7755 30.7079 54.7755 28.7568C54.7755 26.8056 53.1825 25.2238 51.2174 25.2238C49.2523 25.2238 47.6593 26.8056 47.6593 28.7568C47.6593 30.7079 49.2523 32.2897 51.2174 32.2897Z" fill="#AB84BB"/>
<path d="M35.1979 43.8483C37.163 43.8483 38.756 42.2666 38.756 40.3154C38.756 38.3642 37.163 36.7825 35.1979 36.7825C33.2328 36.7825 31.6398 38.3642 31.6398 40.3154C31.6398 42.2666 33.2328 43.8483 35.1979 43.8483Z" fill="#AB84BB"/>
<path d="M21.1428 52.3123C23.1079 52.3123 24.7009 50.7305 24.7009 48.7794C24.7009 46.8282 23.1079 45.2464 21.1428 45.2464C19.1777 45.2464 17.5847 46.8282 17.5847 48.7794C17.5847 50.7305 19.1777 52.3123 21.1428 52.3123Z" fill="#AB84BB"/>
</svg>
